<svg xmlns="http://www.w3.org/2000/svg" viewBox="0 0 64 64">
  <!-- Background -->
  <circle cx="32" cy="32" r="31" fill="#0B3D91"/>
  
  <!-- S letter stylized -->
  <path d="M21 20c0-2.2 1.8-4 4-4h14c2.2 0 4 1.8 4 4v4c0 2.2-1.8 4-4 4H29c-2.2 0-4 1.8-4 4v4c0 2.2 1.8 4 4 4h14c2.2 0 4-1.8 4-4" 
        stroke="#00FFFF" stroke-width="4" stroke-linecap="round" fill="none"/>
  
  <!-- Accent dots representing preservation technology -->
  <circle cx="17" cy="24" r="3" fill="#00FFFF"/>
  <circle cx="47" cy="40" r="3" fill="#00FFFF"/>
  
  <!-- X accent representing sciences -->
  <path d="M39 22l6 6M39 28l6-6" stroke="#008080" stroke-width="2.5" stroke-linecap="round"/>
</svg>